<svg width="280" height="100" viewBox="0 0 280 100" fill="none" xmlns="http://www.w3.org/2000/svg">
<path fill-rule="evenodd" clip-rule="evenodd" d="M57.0243 67.337C61.0847 69.5793 65.63 70.7005 70.66 70.7005C78.1749 70.7005 84.4473 68.246 89.4774 63.3372C94.5681 58.3677 97.1134 52.1862 97.1134 44.7926C97.1134 37.3384 94.5984 31.1568 89.5683 26.2479C84.5382 21.3391 78.2355 18.8846 70.66 18.8846C63.024 18.8846 56.691 21.3391 51.6609 26.2479C46.6308 31.1568 44.1158 37.3384 44.1158 44.7926C44.1158 49.6408 45.2369 54.0649 47.4793 58.0647C49.7822 62.0039 52.9639 65.0947 57.0243 67.337ZM80.0233 54.5194C77.5991 57.0041 74.4781 58.2465 70.66 58.2465C68.7207 58.2465 66.9329 57.9132 65.2967 57.2465C63.721 56.5799 62.3574 55.6709 61.2059 54.5194C60.0545 53.3679 59.1454 51.9438 58.4788 50.2469C57.8727 48.55 57.5697 46.7319 57.5697 44.7926C57.5697 40.8533 58.7818 37.6414 61.2059 35.1566C63.6301 32.6113 66.7511 31.3386 70.5691 31.3386C74.4478 31.3386 77.5991 32.6113 80.0233 35.1566C82.4474 37.6414 83.6595 40.8533 83.6595 44.7926C83.6595 48.7318 82.4474 51.9741 80.0233 54.5194Z" fill="#5E17EB"/>
<path fill-rule="evenodd" clip-rule="evenodd" d="M130.05 70.7005C125.02 70.7005 120.475 69.5793 116.414 67.337C112.354 65.0947 109.172 62.0039 106.869 58.0647C104.627 54.0649 103.506 49.6408 103.506 44.7926C103.506 37.3384 106.021 31.1568 111.051 26.2479C116.081 21.3391 122.414 18.8846 130.05 18.8846C137.626 18.8846 143.928 21.3391 148.958 26.2479C153.988 31.1568 156.503 37.3384 156.503 44.7926C156.503 52.1862 153.958 58.3677 148.867 63.3372C143.837 68.246 137.565 70.7005 130.05 70.7005ZM130.05 58.2465C133.868 58.2465 136.989 57.0041 139.413 54.5194C141.837 51.9741 143.05 48.7318 143.05 44.7926C143.05 40.8533 141.837 37.6414 139.413 35.1566C136.989 32.6113 133.838 31.3386 129.959 31.3386C126.141 31.3386 123.02 32.6113 120.596 35.1566C118.172 37.6414 116.96 40.8533 116.96 44.7926C116.96 46.7319 117.263 48.55 117.869 50.2469C118.535 51.9438 119.445 53.3679 120.596 54.5194C121.747 55.6709 123.111 56.5799 124.687 57.2465C126.323 57.9132 128.111 58.2465 130.05 58.2465Z" fill="#5E17EB"/>
<path d="M90.5029 80.2012C88.7886 77.2318 84.9917 76.2145 82.0224 77.9288C79.0531 79.6432 78.0358 83.44 79.7501 86.4093C81.9685 90.2517 85.1593 93.4425 89.0017 95.661C92.8442 97.8794 97.2029 99.0473 101.64 99.0473C106.077 99.0473 110.435 97.8794 114.278 95.661C118.12 93.4425 121.311 90.2517 123.529 86.4093C125.244 83.44 124.226 79.6432 121.257 77.9288C118.288 76.2145 114.491 77.2318 112.777 80.2012C111.648 82.1561 110.025 83.7795 108.07 84.9081C106.115 86.0368 103.897 86.631 101.64 86.631C99.3824 86.631 97.1648 86.0368 95.2099 84.9081C93.255 83.7795 91.6316 82.1561 90.5029 80.2012Z" fill="#5E17EB"/>
<path d="M39.7801 56.5193H15.4175V5.70343H1.59998V69.3369H39.7801V56.5193Z" fill="#220660"/>
<path d="M204.427 13.703V1.33997H217.699V13.703H204.427Z" fill="#220660"/>
<path d="M204.427 20.2482H217.699V69.3369H204.427V20.2482Z" fill="#220660"/>
<path d="M195.531 19.9755H191.167C185.046 19.9755 180.319 22.0663 176.986 26.2479L174.623 20.2482H166.078V69.3369H179.35V43.7926C179.35 39.7928 180.138 36.9141 181.713 35.1566C183.35 33.3991 186.046 32.5204 189.804 32.5204H195.531V19.9755Z" fill="#220660"/>
<path fill-rule="evenodd" clip-rule="evenodd" d="M279.105 20.1573H269.197L267.742 24.8844C263.257 20.8845 257.894 18.8846 251.652 18.8846C244.258 18.8846 238.107 21.3391 233.198 26.2479C228.35 31.1568 225.926 37.308 225.926 44.7016C225.926 52.1558 228.35 58.3677 233.198 63.3372C238.107 68.246 244.258 70.7005 251.652 70.7005C257.773 70.7005 263.076 68.7612 267.56 64.8826L268.651 69.246H279.105V20.1573ZM252.652 58.1556C248.834 58.1556 245.652 56.8829 243.107 54.3376C240.622 51.7922 239.38 48.5802 239.38 44.7016C239.38 42.1563 239.955 39.8837 241.107 37.8838C242.258 35.8233 243.834 34.2173 245.834 33.0658C247.894 31.8537 250.197 31.2477 252.743 31.2477C256.561 31.2477 259.742 32.5204 262.288 35.0657C264.833 37.611 266.106 40.823 266.106 44.7016C266.106 48.5802 264.833 51.7922 262.288 54.3376C259.742 56.8829 256.53 58.1556 252.652 58.1556Z" fill="#220660"/>
</svg>
